<?xml version="1.0" standalone="no"?><svg xmlns="http://www.w3.org/2000/svg" viewBox="0 0 1440 320"><path fill="#273036" fill-opacity="1" d="M0,288L0,64L36.9,64L36.9,128L73.8,128L73.8,320L110.8,320L110.8,256L147.7,256L147.7,192L184.6,192L184.6,256L221.5,256L221.5,192L258.5,192L258.5,32L295.4,32L295.4,64L332.3,64L332.3,224L369.2,224L369.2,320L406.2,320L406.2,256L443.1,256L443.1,256L480,256L480,224L516.9,224L516.9,0L553.8,0L553.8,32L590.8,32L590.8,224L627.7,224L627.7,96L664.6,96L664.6,224L701.5,224L701.5,64L738.5,64L738.5,64L775.4,64L775.4,96L812.3,96L812.3,192L849.2,192L849.2,192L886.2,192L886.2,32L923.1,32L923.1,224L960,224L960,64L996.9,64L996.9,128L1033.8,128L1033.8,288L1070.8,288L1070.8,288L1107.7,288L1107.7,192L1144.6,192L1144.6,288L1181.5,288L1181.5,160L1218.5,160L1218.5,288L1255.4,288L1255.4,32L1292.3,32L1292.3,224L1329.2,224L1329.2,32L1366.2,32L1366.2,192L1403.1,192L1403.1,320L1440,320L1440,0L1403.1,0L1403.1,0L1366.2,0L1366.2,0L1329.2,0L1329.2,0L1292.3,0L1292.3,0L1255.4,0L1255.4,0L1218.5,0L1218.5,0L1181.5,0L1181.5,0L1144.6,0L1144.6,0L1107.7,0L1107.7,0L1070.8,0L1070.8,0L1033.8,0L1033.8,0L996.9,0L996.9,0L960,0L960,0L923.1,0L923.1,0L886.2,0L886.2,0L849.2,0L849.2,0L812.3,0L812.3,0L775.4,0L775.4,0L738.5,0L738.5,0L701.5,0L701.5,0L664.6,0L664.6,0L627.7,0L627.7,0L590.8,0L590.8,0L553.8,0L553.8,0L516.9,0L516.9,0L480,0L480,0L443.1,0L443.1,0L406.2,0L406.2,0L369.2,0L369.2,0L332.3,0L332.3,0L295.4,0L295.4,0L258.5,0L258.5,0L221.5,0L221.5,0L184.6,0L184.6,0L147.7,0L147.7,0L110.8,0L110.8,0L73.8,0L73.8,0L36.9,0L36.9,0L0,0L0,0Z"></path></svg>