<?xml version="1.0" standalone="no"?><svg xmlns="http://www.w3.org/2000/svg" viewBox="0 0 1440 320"><path fill="#222222" fill-opacity="1" d="M0,96L0,64L68.6,64L68.6,256L137.1,256L137.1,224L205.7,224L205.7,256L274.3,256L274.3,160L342.9,160L342.9,32L411.4,32L411.4,256L480,256L480,224L548.6,224L548.6,160L617.1,160L617.1,96L685.7,96L685.7,288L754.3,288L754.3,32L822.9,32L822.9,128L891.4,128L891.4,96L960,96L960,64L1028.6,64L1028.6,160L1097.1,160L1097.1,32L1165.7,32L1165.7,32L1234.3,32L1234.3,160L1302.9,160L1302.9,64L1371.4,64L1371.4,64L1440,64L1440,0L1371.4,0L1371.4,0L1302.9,0L1302.9,0L1234.3,0L1234.3,0L1165.7,0L1165.7,0L1097.1,0L1097.1,0L1028.6,0L1028.6,0L960,0L960,0L891.4,0L891.4,0L822.9,0L822.9,0L754.3,0L754.3,0L685.7,0L685.7,0L617.1,0L617.1,0L548.6,0L548.6,0L480,0L480,0L411.4,0L411.4,0L342.9,0L342.9,0L274.3,0L274.3,0L205.7,0L205.7,0L137.1,0L137.1,0L68.6,0L68.6,0L0,0L0,0Z"></path></svg>