<?xml version="1.0" standalone="no"?><svg xmlns="http://www.w3.org/2000/svg" viewBox="0 0 1440 320"><path fill="#00cba9" fill-opacity="1" d="M0,224L0,224L62.6,224L62.6,32L125.2,32L125.2,288L187.8,288L187.8,192L250.4,192L250.4,160L313,160L313,192L375.7,192L375.7,256L438.3,256L438.3,32L500.9,32L500.9,96L563.5,96L563.5,96L626.1,96L626.1,64L688.7,64L688.7,256L751.3,256L751.3,32L813.9,32L813.9,224L876.5,224L876.5,32L939.1,32L939.1,32L1001.7,32L1001.7,256L1064.3,256L1064.3,288L1127,288L1127,96L1189.6,96L1189.6,192L1252.2,192L1252.2,256L1314.8,256L1314.8,288L1377.4,288L1377.4,64L1440,64L1440,320L1377.4,320L1377.4,320L1314.8,320L1314.8,320L1252.2,320L1252.2,320L1189.6,320L1189.6,320L1127,320L1127,320L1064.3,320L1064.3,320L1001.7,320L1001.7,320L939.1,320L939.1,320L876.5,320L876.5,320L813.9,320L813.9,320L751.3,320L751.3,320L688.7,320L688.7,320L626.1,320L626.1,320L563.5,320L563.5,320L500.9,320L500.9,320L438.3,320L438.3,320L375.7,320L375.7,320L313,320L313,320L250.4,320L250.4,320L187.8,320L187.8,320L125.2,320L125.2,320L62.6,320L62.6,320L0,320L0,320Z"></path></svg>