<?xml version="1.0" standalone="no"?><svg xmlns="http://www.w3.org/2000/svg" viewBox="0 0 1440 320"><path fill="#00cba9" fill-opacity="1" d="M0,224L0,224L62.6,224L62.6,32L125.2,32L125.2,288L187.8,288L187.8,192L250.4,192L250.4,160L313,160L313,192L375.7,192L375.7,256L438.3,256L438.3,32L500.9,32L500.9,96L563.5,96L563.5,96L626.1,96L626.1,64L688.7,64L688.7,256L751.3,256L751.3,32L813.9,32L813.9,224L876.5,224L876.5,32L939.1,32L939.1,32L1001.7,32L1001.7,256L1064.3,256L1064.3,288L1127,288L1127,96L1189.6,96L1189.6,192L1252.2,192L1252.2,256L1314.8,256L1314.8,288L1377.4,288L1377.4,64L1440,64L1440,0L1377.4,0L1377.4,0L1314.8,0L1314.8,0L1252.2,0L1252.2,0L1189.6,0L1189.6,0L1127,0L1127,0L1064.3,0L1064.3,0L1001.7,0L1001.7,0L939.1,0L939.1,0L876.5,0L876.5,0L813.9,0L813.9,0L751.3,0L751.3,0L688.7,0L688.7,0L626.1,0L626.1,0L563.5,0L563.5,0L500.9,0L500.9,0L438.3,0L438.3,0L375.7,0L375.7,0L313,0L313,0L250.4,0L250.4,0L187.8,0L187.8,0L125.2,0L125.2,0L62.6,0L62.6,0L0,0L0,0Z"></path></svg>