<?xml version="1.0" standalone="no"?><svg xmlns="http://www.w3.org/2000/svg" viewBox="0 0 1440 320"><path fill="#00cba9" fill-opacity="1" d="M0,0L0,32L36.9,32L36.9,128L73.8,128L73.8,192L110.8,192L110.8,128L147.7,128L147.7,96L184.6,96L184.6,64L221.5,64L221.5,256L258.5,256L258.5,224L295.4,224L295.4,64L332.3,64L332.3,96L369.2,96L369.2,192L406.2,192L406.2,128L443.1,128L443.1,256L480,256L480,288L516.9,288L516.9,256L553.8,256L553.8,96L590.8,96L590.8,0L627.7,0L627.7,128L664.6,128L664.6,64L701.5,64L701.5,224L738.5,224L738.5,0L775.4,0L775.4,192L812.3,192L812.3,256L849.2,256L849.2,320L886.2,320L886.2,160L923.1,160L923.1,256L960,256L960,256L996.9,256L996.9,0L1033.8,0L1033.8,96L1070.8,96L1070.8,64L1107.7,64L1107.7,64L1144.6,64L1144.6,64L1181.5,64L1181.5,64L1218.5,64L1218.5,64L1255.4,64L1255.4,160L1292.3,160L1292.3,96L1329.2,96L1329.2,288L1366.2,288L1366.2,256L1403.1,256L1403.1,160L1440,160L1440,320L1403.1,320L1403.1,320L1366.2,320L1366.2,320L1329.2,320L1329.2,320L1292.3,320L1292.3,320L1255.4,320L1255.4,320L1218.5,320L1218.5,320L1181.5,320L1181.5,320L1144.6,320L1144.6,320L1107.7,320L1107.7,320L1070.8,320L1070.8,320L1033.8,320L1033.8,320L996.9,320L996.9,320L960,320L960,320L923.1,320L923.1,320L886.2,320L886.2,320L849.2,320L849.2,320L812.3,320L812.3,320L775.4,320L775.4,320L738.5,320L738.5,320L701.5,320L701.5,320L664.6,320L664.6,320L627.7,320L627.7,320L590.8,320L590.8,320L553.8,320L553.8,320L516.9,320L516.9,320L480,320L480,320L443.1,320L443.1,320L406.2,320L406.2,320L369.2,320L369.2,320L332.3,320L332.3,320L295.4,320L295.4,320L258.5,320L258.5,320L221.5,320L221.5,320L184.6,320L184.6,320L147.7,320L147.7,320L110.8,320L110.8,320L73.8,320L73.8,320L36.9,320L36.9,320L0,320L0,320Z"></path></svg>