<?xml version="1.0" standalone="no"?><svg xmlns="http://www.w3.org/2000/svg" viewBox="0 0 1440 320"><path fill="#00cba9" fill-opacity="1" d="M0,160L0,160L36.9,160L36.9,32L73.8,32L73.8,288L110.8,288L110.8,128L147.7,128L147.7,64L184.6,64L184.6,64L221.5,64L221.5,160L258.5,160L258.5,96L295.4,96L295.4,128L332.3,128L332.3,128L369.2,128L369.2,160L406.2,160L406.2,256L443.1,256L443.1,256L480,256L480,96L516.9,96L516.9,64L553.8,64L553.8,288L590.8,288L590.8,256L627.7,256L627.7,224L664.6,224L664.6,192L701.5,192L701.5,256L738.5,256L738.5,256L775.4,256L775.4,320L812.3,320L812.3,32L849.2,32L849.2,288L886.2,288L886.2,64L923.1,64L923.1,64L960,64L960,320L996.9,320L996.9,128L1033.8,128L1033.8,32L1070.8,32L1070.8,64L1107.7,64L1107.7,64L1144.6,64L1144.6,64L1181.5,64L1181.5,0L1218.5,0L1218.5,128L1255.4,128L1255.4,256L1292.3,256L1292.3,0L1329.2,0L1329.2,64L1366.2,64L1366.2,64L1403.1,64L1403.1,96L1440,96L1440,0L1403.1,0L1403.1,0L1366.2,0L1366.2,0L1329.2,0L1329.2,0L1292.3,0L1292.3,0L1255.4,0L1255.4,0L1218.5,0L1218.5,0L1181.5,0L1181.5,0L1144.6,0L1144.6,0L1107.7,0L1107.7,0L1070.8,0L1070.8,0L1033.8,0L1033.8,0L996.9,0L996.9,0L960,0L960,0L923.1,0L923.1,0L886.2,0L886.2,0L849.2,0L849.2,0L812.3,0L812.3,0L775.4,0L775.4,0L738.5,0L738.5,0L701.5,0L701.5,0L664.6,0L664.6,0L627.7,0L627.7,0L590.8,0L590.8,0L553.8,0L553.8,0L516.9,0L516.9,0L480,0L480,0L443.1,0L443.1,0L406.2,0L406.2,0L369.2,0L369.2,0L332.3,0L332.3,0L295.4,0L295.4,0L258.5,0L258.5,0L221.5,0L221.5,0L184.6,0L184.6,0L147.7,0L147.7,0L110.8,0L110.8,0L73.8,0L73.8,0L36.9,0L36.9,0L0,0L0,0Z"></path></svg>