<?xml version="1.0" standalone="no"?><svg xmlns="http://www.w3.org/2000/svg" viewBox="0 0 1440 320"><path fill="#273036" fill-opacity="1" d="M0,320L0,32L36.9,32L36.9,320L73.8,320L73.8,64L110.8,64L110.8,32L147.7,32L147.7,288L184.6,288L184.6,96L221.5,96L221.5,192L258.5,192L258.5,192L295.4,192L295.4,256L332.3,256L332.3,256L369.2,256L369.2,64L406.2,64L406.2,224L443.1,224L443.1,288L480,288L480,256L516.9,256L516.9,288L553.8,288L553.8,288L590.8,288L590.8,256L627.7,256L627.7,160L664.6,160L664.6,128L701.5,128L701.5,288L738.5,288L738.5,224L775.4,224L775.4,96L812.3,96L812.3,128L849.2,128L849.2,192L886.2,192L886.2,288L923.1,288L923.1,160L960,160L960,160L996.9,160L996.9,64L1033.8,64L1033.8,128L1070.8,128L1070.8,160L1107.7,160L1107.7,32L1144.6,32L1144.6,160L1181.5,160L1181.5,288L1218.5,288L1218.5,160L1255.4,160L1255.4,288L1292.3,288L1292.3,256L1329.2,256L1329.2,256L1366.2,256L1366.2,96L1403.1,96L1403.1,224L1440,224L1440,0L1403.1,0L1403.1,0L1366.2,0L1366.2,0L1329.2,0L1329.2,0L1292.3,0L1292.3,0L1255.4,0L1255.4,0L1218.5,0L1218.5,0L1181.5,0L1181.5,0L1144.6,0L1144.6,0L1107.7,0L1107.7,0L1070.8,0L1070.8,0L1033.8,0L1033.8,0L996.9,0L996.9,0L960,0L960,0L923.1,0L923.1,0L886.2,0L886.2,0L849.2,0L849.2,0L812.3,0L812.3,0L775.4,0L775.4,0L738.5,0L738.5,0L701.5,0L701.5,0L664.6,0L664.6,0L627.7,0L627.7,0L590.8,0L590.8,0L553.8,0L553.8,0L516.9,0L516.9,0L480,0L480,0L443.1,0L443.1,0L406.2,0L406.2,0L369.2,0L369.2,0L332.3,0L332.3,0L295.4,0L295.4,0L258.5,0L258.5,0L221.5,0L221.5,0L184.6,0L184.6,0L147.7,0L147.7,0L110.8,0L110.8,0L73.8,0L73.8,0L36.9,0L36.9,0L0,0L0,0Z"></path></svg>